<?xml version="1.0" encoding="UTF-8"?>
<!DOCTYPE svg PUBLIC "-//W3C//DTD SVG 1.1//EN" "http://www.w3.org/Graphics/SVG/1.1/DTD/svg11.dtd">
<!-- Creator: CorelDRAW X7 -->
<svg xmlns="http://www.w3.org/2000/svg" xml:space="preserve" width="210mm" height="297mm" version="1.1" style="shape-rendering:geometricPrecision; text-rendering:geometricPrecision; image-rendering:optimizeQuality; fill-rule:evenodd; clip-rule:evenodd"
viewBox="0 0 21000 29700"
 xmlns:xlink="http://www.w3.org/1999/xlink">
 <defs>
  <style type="text/css">
   <![CDATA[
    .fil0 {fill:#CCE2F6}
    .fil1 {fill:black}
   ]]>
  </style>
 </defs>
 <g id="Laag_x0020_1">
  <metadata id="CorelCorpID_0Corel-Layer"/>
  <path class="fil0" d="M19425 12417l0 -7775 -19402 0 0 7775c604,-120 1229,-316 1852,-455 1401,-314 2529,-491 3960,-658 726,-85 1455,-87 2172,-160l20 -1193c-105,57 -268,144 -405,154 104,-106 273,-156 400,-240l25 -384c4,-10 11,-22 15,-30 3,-7 9,-20 15,-29l-6 406 390 266c-9,9 -18,16 -21,30l-80 -29c-5,-3 -14,-11 -20,-15 -5,-3 -83,-54 -85,-55 -73,-45 -102,-71 -182,-88l15 1194 990 -11 23 -1193 -455 -15c84,-63 317,-45 453,-48 46,-154 154,-327 261,-410l-209 407c77,111 184,242 228,422 -39,-43 -66,-79 -109,-141 -72,-103 -20,-64 -122,-143l10 1122 1018 -1 20 -1002c-65,57 -35,35 -80,101l-30 45c-34,48 -22,34 -54,66l156 -436c-113,-99 -236,-270 -279,-389 132,88 180,253 310,345l461 -43c-38,37 18,18 -82,47 -49,14 -75,16 -125,23 -117,16 -125,-2 -225,57l12 1184 1030 20 5 -1200 -446 75c277,-215 330,77 492,-366 6,-18 35,-91 41,-102l-44 333c104,57 166,133 228,223l73 130c-222,-151 -128,-180 -298,-274 6,204 7,408 9,612 1,101 -20,517 42,565 175,58 1780,118 2157,162 699,82 1360,176 2049,280 665,101 1303,236 1946,379 634,142 1267,340 1881,462z"/>
  <path class="fil1" d="M23 12417l0 0 19402 0 0 0c-614,-122 -1247,-320 -1881,-462 -643,-143 -1281,-278 -1946,-379 -689,-104 -1350,-198 -2049,-280 -377,-44 -1982,-104 -2157,-162 -62,-48 -41,-464 -42,-565 -2,-204 -3,-408 -9,-612 170,94 76,123 298,274l-73 -130c-62,-90 -124,-166 -228,-223l44 -333c-6,11 -35,84 -41,102 -162,443 -215,151 -492,366l446 -75 -5 1200 -1030 -20 -12 -1184c100,-59 108,-41 225,-57 50,-7 76,-9 125,-23 100,-29 44,-10 82,-47l-461 43c-130,-92 -178,-257 -310,-345 43,119 166,290 279,389l-156 436c32,-32 20,-18 54,-66l30 -45c45,-66 15,-44 80,-101l-20 1002 -1018 1 -10 -1122c102,79 50,40 122,143 43,62 70,98 109,141 -44,-180 -151,-311 -228,-422l209 -407c-107,83 -215,256 -261,410 -136,3 -369,-15 -453,48l455 15 -23 1193 -990 11 -15 -1194c80,17 109,43 182,88 2,1 80,52 85,55 6,4 15,12 20,15l80 29c3,-14 12,-21 21,-30l-390 -266 6 -406c-6,9 -12,22 -15,29 -4,8 -11,20 -15,30l-25 384c-127,84 -296,134 -400,240 137,-10 300,-97 405,-154l-20 1193c-717,73 -1446,75 -2172,160 -1431,167 -2559,344 -3960,658 -623,139 -1248,335 -1852,455z"/>
 </g>
</svg>
